<svg version="1.1" id="Layer_1" xmlns="http://www.w3.org/2000/svg" xmlns:xlink="http://www.w3.org/1999/xlink" x="0px" y="0px"
	 width="100%" viewBox="0 0 980 980" enable-background="new 0 0 980 980" xml:space="preserve">
<path fill="#FFFFFF" opacity="1.000000" stroke="none" 
	d="
M981.000000,239.000000 
	C981.000000,486.264008 981.000000,733.528015 981.000000,981.000000 
	C733.638672,981.000000 486.277283,981.000000 238.646667,980.620972 
	C240.369217,980.117676 242.370270,980.077026 244.351334,979.856567 
	C294.789490,974.245117 339.039825,954.715515 375.186401,918.991089 
	C444.000610,850.980408 512.183655,782.331055 580.614807,713.932922 
	C581.167603,713.380371 581.527100,712.634521 582.273193,711.946167 
	C582.541443,711.692078 582.513306,711.470703 582.485229,711.249390 
	C582.345276,711.274170 582.089172,711.285400 582.084412,711.326111 
	C582.055847,711.569275 582.085327,711.819153 581.762634,711.825562 
	C580.798889,711.800659 580.155334,711.986145 579.538635,712.237671 
	C533.025757,731.209290 486.809204,730.299561 440.989014,709.929199 
	C437.514343,708.384583 435.763763,709.270874 433.403046,711.638184 
	C390.568512,754.591675 347.736206,797.548035 304.737457,840.337036 
	C275.777832,869.155334 240.759628,880.979675 200.689789,873.176758 
	C155.764877,864.428406 125.232422,837.279297 111.940300,793.489197 
	C98.764656,750.082703 108.841667,710.823303 140.803711,678.543152 
	C214.087341,604.530212 287.740753,530.879578 361.681335,457.522675 
	C393.502716,425.952484 431.983948,416.605621 475.239502,428.068390 
	C496.716827,433.759918 514.142151,446.256775 529.640564,461.962646 
	C535.729553,468.133057 542.530334,474.266876 550.167053,478.115204 
	C570.476929,488.349884 594.194336,483.774231 610.001221,467.951874 
	C625.825867,452.111755 629.814758,428.653839 620.483887,407.962769 
	C616.156555,398.367035 608.380493,391.752167 601.199036,384.639648 
	C548.382324,332.329926 484.820984,310.742249 411.330811,320.455078 
	C362.641571,326.890076 320.908875,348.629913 286.117035,383.404236 
	C212.801254,456.683075 139.482056,529.958557 66.234497,603.305603 
	C33.557922,636.026489 12.904157,675.139771 4.628197,720.699585 
	C3.341032,727.785583 2.205604,734.899170 1.000002,742.000000 
	C1.000000,495.069366 1.000000,248.138718 1.000000,1.000000 
	C247.694656,1.000000 494.389374,1.000000 741.375977,1.382308 
	C737.195374,2.260561 732.697144,2.590295 728.254395,3.277968 
	C679.519653,10.821275 637.613281,31.871601 602.708801,66.792252 
	C536.139771,133.392090 469.541931,199.963089 402.963440,266.553406 
	C402.010010,267.507019 401.151611,268.555634 399.326813,270.585632 
	C401.763947,269.804138 402.848358,269.522064 403.883636,269.114960 
	C450.038757,250.965057 495.814697,251.872162 541.113586,272.056183 
	C544.527771,273.577454 546.296326,272.821594 548.716675,270.398621 
	C592.531738,226.535446 636.137085,182.455917 680.439392,139.088852 
	C707.808350,112.297638 741.430969,102.318344 779.104248,108.272125 
	C864.195374,121.719696 904.508606,223.545883 851.728455,291.606201 
	C843.605591,302.080719 833.763245,311.268921 824.356873,320.693390 
	C756.776794,388.403229 689.156799,456.073578 621.440308,523.646912 
	C581.473511,563.529236 522.941345,570.315735 476.611786,539.792053 
	C465.471252,532.452271 456.342102,522.110413 445.958832,513.548279 
	C440.911499,509.386230 435.502716,505.231293 429.571472,502.648987 
	C406.840576,492.752594 380.107117,500.956146 365.954498,521.536438 
	C351.996124,541.834167 353.918640,569.761597 370.861359,587.338440 
	C378.830322,595.605591 386.957275,603.821106 395.753632,611.173462 
	C446.561981,653.640869 505.135315,670.446106 570.573364,661.581909 
	C619.280884,654.984009 661.033508,633.415161 695.831177,598.653870 
	C769.289124,525.272705 842.743530,451.887634 916.072144,378.377228 
	C948.598450,345.770233 969.110840,306.725098 977.331665,261.334015 
	C978.676025,253.911346 979.783203,246.445755 981.000000,239.000000 
z"/>
<path fill="#010101" opacity="1.000000" stroke="none" 
	d="
M1.000002,742.468628 
	C2.205604,734.899170 3.341032,727.785583 4.628197,720.699585 
	C12.904157,675.139771 33.557922,636.026489 66.234497,603.305603 
	C139.482056,529.958557 212.801254,456.683075 286.117035,383.404236 
	C320.908875,348.629913 362.641571,326.890076 411.330811,320.455078 
	C484.820984,310.742249 548.382324,332.329926 601.199036,384.639648 
	C608.380493,391.752167 616.156555,398.367035 620.483887,407.962769 
	C629.814758,428.653839 625.825867,452.111755 610.001221,467.951874 
	C594.194336,483.774231 570.476929,488.349884 550.167053,478.115204 
	C542.530334,474.266876 535.729553,468.133057 529.640564,461.962646 
	C514.142151,446.256775 496.716827,433.759918 475.239502,428.068390 
	C431.983948,416.605621 393.502716,425.952484 361.681335,457.522675 
	C287.740753,530.879578 214.087341,604.530212 140.803711,678.543152 
	C108.841667,710.823303 98.764656,750.082703 111.940300,793.489197 
	C125.232422,837.279297 155.764877,864.428406 200.689789,873.176758 
	C240.759628,880.979675 275.777832,869.155334 304.737457,840.337036 
	C347.736206,797.548035 390.568512,754.591675 433.403046,711.638184 
	C435.763763,709.270874 437.514343,708.384583 440.989014,709.929199 
	C486.809204,730.299561 533.025757,731.209290 579.538635,712.237671 
	C580.155334,711.986145 580.798889,711.800659 581.731934,711.805176 
	C582.033875,712.025940 581.976868,711.978943 581.976868,711.978943 
	C581.527100,712.634521 581.167603,713.380371 580.614807,713.932922 
	C512.183655,782.331055 444.000610,850.980408 375.186401,918.991089 
	C339.039825,954.715515 294.789490,974.245117 244.351334,979.856567 
	C242.370270,980.077026 240.369217,980.117676 238.188721,980.620972 
	C226.979111,981.000000 215.958206,981.000000 204.286011,980.627747 
	C170.901932,977.242188 139.952530,968.249146 111.635216,951.434021 
	C53.792431,917.086182 18.033533,866.880371 4.895551,800.776978 
	C3.394583,793.224915 2.288943,785.594238 1.000000,778.000000 
	C1.000000,766.312439 1.000000,754.624878 1.000002,742.468628 
z"/>
<path fill="#010101" opacity="1.000000" stroke="none" 
	d="
M981.000000,238.531342 
	C979.783203,246.445755 978.676025,253.911346 977.331665,261.334015 
	C969.110840,306.725098 948.598450,345.770233 916.072144,378.377228 
	C842.743530,451.887634 769.289124,525.272705 695.831177,598.653870 
	C661.033508,633.415161 619.280884,654.984009 570.573364,661.581909 
	C505.135315,670.446106 446.561981,653.640869 395.753632,611.173462 
	C386.957275,603.821106 378.830322,595.605591 370.861359,587.338440 
	C353.918640,569.761597 351.996124,541.834167 365.954498,521.536438 
	C380.107117,500.956146 406.840576,492.752594 429.571472,502.648987 
	C435.502716,505.231293 440.911499,509.386230 445.958832,513.548279 
	C456.342102,522.110413 465.471252,532.452271 476.611786,539.792053 
	C522.941345,570.315735 581.473511,563.529236 621.440308,523.646912 
	C689.156799,456.073578 756.776794,388.403229 824.356873,320.693390 
	C833.763245,311.268921 843.605591,302.080719 851.728455,291.606201 
	C904.508606,223.545883 864.195374,121.719696 779.104248,108.272125 
	C741.430969,102.318344 707.808350,112.297638 680.439392,139.088852 
	C636.137085,182.455917 592.531738,226.535446 548.716675,270.398621 
	C546.296326,272.821594 544.527771,273.577454 541.113586,272.056183 
	C495.814697,251.872162 450.038757,250.965057 403.883636,269.114960 
	C402.848358,269.522064 401.763947,269.804138 399.326813,270.585632 
	C401.151611,268.555634 402.010010,267.507019 402.963440,266.553406 
	C469.541931,199.963089 536.139771,133.392090 602.708801,66.792252 
	C637.613281,31.871601 679.519653,10.821275 728.254395,3.277968 
	C732.697144,2.590295 737.195374,2.260561 741.833923,1.382308 
	C753.020874,1.000000 764.041809,1.000000 775.726074,1.375133 
	C801.677185,3.473608 826.060181,9.149800 849.053589,19.797092 
	C918.957886,52.166862 961.766663,106.165146 977.161072,181.721207 
	C978.730103,189.421860 979.733948,197.237640 981.000000,205.000000 
	C981.000000,216.020889 981.000000,227.041794 981.000000,238.531342 
z"/>
<path fill="#FEFEFE" opacity="1.000000" stroke="none" 
	d="
M981.000000,204.531342 
	C979.733948,197.237640 978.730103,189.421860 977.161072,181.721207 
	C961.766663,106.165146 918.957886,52.166862 849.053589,19.797092 
	C826.060181,9.149800 801.677185,3.473608 776.194702,1.375133 
	C844.260193,1.000000 912.520325,1.000000 981.000000,1.000000 
	C981.000000,68.687401 981.000000,136.375046 981.000000,204.531342 
z"/>
<path fill="#FEFEFE" opacity="1.000000" stroke="none" 
	d="
M1.000000,778.468628 
	C2.288943,785.594238 3.394583,793.224915 4.895551,800.776978 
	C18.033533,866.880371 53.792431,917.086182 111.635216,951.434021 
	C139.952530,968.249146 170.901932,977.242188 203.817352,980.627747 
	C136.406311,981.000000 68.812622,981.000000 1.000000,981.000000 
	C1.000000,913.645935 1.000000,846.291626 1.000000,778.468628 
z"/>
<path fill="#010101" opacity="1.000000" stroke="none" 
	d="
M582.064575,712.046387 
	C582.085327,711.819153 582.055847,711.569275 582.084412,711.326111 
	C582.089172,711.285400 582.345276,711.274170 582.485229,711.249390 
	C582.513306,711.470703 582.541443,711.692078 582.273193,711.946167 
	C581.976868,711.978943 582.033875,712.025940 582.064575,712.046387 
z"/>
</svg>