<svg version="1.1" id="Layer_1" xmlns="http://www.w3.org/2000/svg" xmlns:xlink="http://www.w3.org/1999/xlink" x="0px" y="0px"
	 width="100%" viewBox="0 0 768 432" enable-background="new 0 0 768 432" xml:space="preserve">
<path fill="#000000" opacity="1.000000" stroke="none" 
	d="
M674.856506,197.109924 
	C664.455994,201.934418 651.879944,200.476486 646.583069,194.037079 
	C647.148315,192.241684 648.719971,192.761063 649.916687,192.737411 
	C654.747803,192.641891 659.584656,192.773209 664.413208,192.623032 
	C670.688171,192.427872 674.592529,188.895676 674.492615,182.612137 
	C674.227722,165.952744 673.993408,149.298904 674.204041,132.635880 
	C674.264099,127.889664 670.870911,124.660843 665.935486,124.289154 
	C662.121277,124.001900 658.275452,124.087601 654.443726,124.086548 
	C572.953186,124.064087 491.462677,124.049850 409.972168,124.057220 
	C408.017242,124.057396 405.963287,123.612785 403.777832,125.055473 
	C404.519104,130.832626 406.507721,136.454468 408.039825,142.172623 
	C411.998047,156.945480 416.175598,171.662262 419.906677,186.491760 
	C421.079163,191.151886 423.022675,192.833252 428.037964,192.818237 
	C492.029999,192.626862 556.022766,192.681458 620.015320,192.674911 
	C621.181702,192.674789 622.348572,192.718048 623.514282,192.694458 
	C625.850525,192.647202 627.326355,193.365845 627.278442,196.099579 
	C627.232056,198.747711 625.919739,199.484390 623.494202,199.499237 
	C615.000366,199.551193 606.502380,199.985703 598.014832,199.820557 
	C552.192627,198.928894 506.367554,199.691788 460.544800,199.447021 
	C450.379578,199.392715 440.213440,199.375595 430.048553,199.451706 
	C424.471588,199.493454 424.093781,200.314331 425.148743,205.609543 
	C426.449524,212.138550 430.074615,217.981415 430.568909,224.737167 
	C430.634460,225.632965 431.323456,226.610779 431.976318,227.317184 
	C446.101501,242.601440 460.262573,257.852509 474.138885,272.810425 
	C475.564087,272.871887 475.813416,272.196014 476.060028,271.600037 
	C482.475739,256.095490 499.116486,250.434052 515.863037,258.966980 
	C533.344482,267.874359 543.416748,290.626312 538.203186,309.512756 
	C534.288208,323.695374 520.808472,331.757080 506.544312,328.546356 
	C493.323669,325.570526 484.742523,316.998749 478.550262,305.534973 
	C468.332367,286.618378 456.379547,269.094208 438.990356,255.902206 
	C434.347961,252.380310 429.386322,249.437546 423.665344,247.299408 
	C421.876312,250.811218 421.554688,254.219833 421.323792,257.652405 
	C419.878143,279.144501 425.283722,299.276245 433.890778,318.649780 
	C438.397125,328.793030 442.119171,338.819611 441.448975,350.289551 
	C440.245819,370.880493 420.936920,383.137726 402.153625,374.774017 
	C382.846985,366.177307 371.846008,340.883301 378.767578,320.944794 
	C382.176239,311.125732 390.660645,300.748779 408.420868,302.664215 
	C409.847687,302.818085 411.279327,303.680420 413.366058,302.662262 
	C411.715790,292.878571 410.081818,282.939697 408.352783,273.017426 
	C406.870178,264.509094 405.014526,256.056030 403.840851,247.507538 
	C403.201752,242.852509 401.572571,239.011002 398.676971,235.365784 
	C390.285217,224.801590 382.048767,214.112015 373.887421,203.368286 
	C371.781006,200.595383 369.401154,199.366241 365.868225,199.371597 
	C310.041473,199.456238 254.213287,199.216919 198.388290,199.544281 
	C172.564438,199.695724 146.747665,200.097992 120.926643,199.437607 
	C109.695770,199.150360 103.691849,193.169388 103.677948,182.013763 
	C103.658844,166.682220 103.665039,151.350647 103.671875,136.019089 
	C103.677658,123.036514 109.787300,116.834885 123.016678,116.766846 
	C145.346848,116.652016 167.677902,116.685745 190.008575,116.693565 
	C227.837479,116.706810 265.666382,116.749664 303.495270,116.777298 
	C310.849548,116.782669 310.938629,116.760201 309.559021,109.371117 
	C308.830841,105.471024 308.165070,101.634857 309.315918,97.000366 
	C314.881012,101.298866 319.114349,106.179550 323.182526,111.084061 
	C326.676880,115.296761 330.460846,117.060478 336.034119,116.888474 
	C349.186554,116.482536 362.360657,116.709511 375.525055,116.805984 
	C379.303101,116.833664 380.879852,116.062752 380.016541,111.607742 
	C377.173920,96.938728 374.822418,82.174599 372.268585,67.449387 
	C372.127869,66.638153 371.773193,65.841125 372.545685,65.014679 
	C374.858582,64.555946 376.037079,66.488091 377.441895,67.710770 
	C387.859711,76.777962 393.968689,88.294579 397.207977,101.649635 
	C400.888916,116.825325 401.107178,116.772331 416.805267,116.767136 
	C497.795776,116.740356 578.786255,116.718231 659.776794,116.674568 
	C664.295776,116.672134 668.766602,116.772148 673.003906,118.636070 
	C679.088135,121.312416 682.381287,125.749695 682.353210,132.592560 
	C682.284058,149.423660 682.194702,166.256989 682.408264,183.085693 
	C682.485962,189.207428 680.247009,193.691452 674.856506,197.109924 
M385.653564,143.626999 
	C384.911407,139.205826 383.912445,134.808731 383.495117,130.357101 
	C383.023163,125.323128 380.620148,123.935699 375.673950,123.952354 
	C323.348785,124.128441 271.022827,124.077667 218.697113,124.078217 
	C187.035156,124.078545 155.373199,124.040039 123.711266,124.060722 
	C114.476112,124.066757 112.046989,126.509460 112.034431,135.546143 
	C112.013359,150.710510 111.993401,165.874908 112.011116,181.039261 
	C112.021439,189.876007 114.849632,192.661652 123.676857,192.661972 
	C181.168457,192.664062 238.660065,192.660690 296.151672,192.667648 
	C326.980499,192.671387 357.809387,192.664566 388.638062,192.744995 
	C391.969971,192.753693 394.308167,192.325760 393.549744,188.142273 
	C390.912903,173.596680 388.323700,159.042450 385.653564,143.626999 
M421.240356,322.270996 
	C418.946991,319.810791 416.262695,317.884949 413.244293,316.414032 
	C402.710205,311.280609 392.550659,316.010193 389.678467,327.385742 
	C386.342194,340.599396 393.583923,356.770752 405.670959,363.098358 
	C416.221802,368.621765 426.660339,363.975128 429.633606,352.354736 
	C432.527527,341.044525 428.694183,331.483032 421.240356,322.270996 
M495.759369,267.953094 
	C490.505280,269.992859 487.658112,274.058807 486.210266,279.300781 
	C482.316925,293.396729 491.947845,311.377319 505.842316,315.955048 
	C517.083923,319.658691 526.926514,313.119934 527.704468,301.355499 
	C527.868347,298.877655 527.962402,296.335938 527.609558,293.892822 
	C525.354492,278.278625 510.770325,264.134338 495.759369,267.953094 
M407.841125,228.095474 
	C408.426208,228.816925 408.747955,229.951263 410.387268,229.434860 
	C411.201416,226.408859 412.912109,223.458130 413.159607,219.449860 
	C408.964996,221.133530 406.784180,223.320236 407.841125,228.095474 
M414.793427,231.577057 
	C418.035522,232.534698 418.993073,230.153595 419.999207,227.949265 
	C421.105103,225.526337 420.451263,223.632736 418.151550,221.995163 
	C416.236206,224.962555 415.639282,228.033447 414.793427,231.577057 
z"/>
<path fill="#000000" opacity="1.000000" stroke="none" 
	d="
M662.455200,209.172394 
	C658.391235,211.967056 653.539001,212.044647 649.291992,213.983810 
	C648.362671,216.590347 650.067139,218.474823 650.968079,220.518890 
	C652.912476,224.930634 654.872009,229.339890 656.989990,233.669586 
	C658.447144,236.648331 658.647217,238.871628 655.008789,240.445404 
	C651.371155,242.018890 650.738708,239.443481 649.704407,237.164505 
	C647.299805,231.866028 644.822327,226.599594 642.494446,221.267731 
	C641.251160,218.419815 639.700073,218.061600 637.092468,219.729095 
	C633.905884,221.766861 631.056519,224.393753 626.267456,226.161362 
	C627.481567,212.527634 628.638794,199.533173 629.817322,186.299408 
	C634.075256,186.842316 636.309875,189.545593 638.906494,191.437256 
	C646.799011,197.187088 655.330017,202.078568 662.455200,209.172394 
z"/>
<path fill="#000000" opacity="1.000000" stroke="none" 
	d="
M649.541260,151.421509 
	C653.059143,153.702209 656.317871,155.719330 659.466980,157.895096 
	C661.856018,159.545731 661.811707,161.499680 659.408508,163.058853 
	C653.405151,166.953873 647.331116,170.740845 641.256104,174.524078 
	C640.063782,175.266571 638.625793,175.636948 637.743469,174.154922 
	C636.851929,172.657425 637.939392,171.691422 639.117065,170.909882 
	C642.401306,168.730438 645.687378,166.553818 648.742249,163.370682 
	C641.645630,163.370682 634.548584,163.409515 627.452576,163.346329 
	C625.400818,163.328079 622.843933,163.890671 622.754028,160.474289 
	C622.657410,156.796402 625.396301,157.275085 627.634094,157.146255 
	C634.427734,156.755188 641.259766,157.916550 649.193298,156.538284 
	C645.777649,154.344452 643.073853,152.657745 640.425476,150.888062 
	C638.851440,149.836258 636.122070,148.879242 637.695679,146.511398 
	C639.193848,144.257095 641.285156,146.232758 642.923950,147.189774 
	C645.078613,148.448029 647.135864,149.872925 649.541260,151.421509 
z"/>
<path fill="#000000" opacity="1.000000" stroke="none" 
	d="
M131.541702,141.506531 
	C141.153824,134.064163 151.981812,133.783813 160.835800,140.502060 
	C168.608170,146.399551 171.733154,158.498077 167.736679,167.587463 
	C163.914200,176.281097 156.818207,180.664612 147.688065,180.903198 
	C138.945984,181.131622 131.822784,177.121902 127.538155,169.296021 
	C123.117363,161.221451 123.348518,153.032043 128.368881,145.174805 
	C129.166367,143.926682 130.298737,142.892532 131.541702,141.506531 
M156.476181,150.093140 
	C154.437057,151.252182 151.979477,152.056274 151.852859,155.584946 
	C155.523834,155.371780 158.900040,156.464630 162.378906,154.634705 
	C161.549500,151.758148 161.307755,148.695099 156.476181,150.093140 
M132.930511,150.565002 
	C132.271591,152.003784 130.982742,153.330200 132.232895,155.332809 
	C135.449799,155.700348 138.773987,156.257324 142.505432,154.778305 
	C139.950104,151.590485 137.666351,148.952225 132.930511,150.565002 
M133.625320,166.725082 
	C137.973648,167.767014 140.233414,165.387451 142.711456,161.598526 
	C138.553970,161.423508 135.355972,160.748520 132.290085,161.911255 
	C131.581848,163.739380 132.419922,164.973816 133.625320,166.725082 
M161.407166,165.662521 
	C161.842941,164.348282 163.469513,162.446533 161.510590,161.821777 
	C158.523132,160.868973 155.208908,160.650009 151.684830,162.312256 
	C154.591095,165.014297 156.517868,168.608215 161.407166,165.662521 
M149.685898,170.771591 
	C149.801285,171.832748 149.016373,173.070175 150.441055,174.008621 
	C152.429993,173.763718 154.359680,173.212631 155.827316,171.434250 
	C151.646317,168.678543 151.646317,168.678543 149.685898,170.771591 
M138.677979,145.763809 
	C140.056427,146.641357 141.416595,147.586151 143.196823,147.060486 
	C143.984543,145.791840 144.121628,144.576324 143.200119,143.139526 
	C141.298050,143.144852 139.382019,143.124146 138.677979,145.763809 
M152.029083,147.148911 
	C153.005585,146.478043 154.683212,146.661255 154.813782,144.895538 
	C153.667938,143.561035 152.322098,142.917953 150.227966,143.440216 
	C150.528198,144.817581 148.467911,146.698822 152.029083,147.148911 
M143.855530,170.325455 
	C141.512878,167.894714 140.541840,170.243332 138.420532,171.761322 
	C140.984299,172.365280 143.088745,175.759689 143.855530,170.325455 
z"/>
<path fill="#000000" opacity="1.000000" stroke="none" 
	d="
M294.285156,164.256470 
	C293.812469,165.736511 293.438324,166.841064 293.073242,167.948578 
	C292.394531,170.007507 291.348846,171.471451 288.812622,171.293045 
	C286.398193,171.123199 285.921234,169.498413 285.499634,167.609970 
	C285.249176,166.488098 284.749359,165.421875 284.296692,164.147614 
	C282.367035,165.328125 282.577850,167.326431 281.978912,168.914383 
	C281.384033,170.491455 280.331329,171.326447 278.584686,171.293991 
	C277.143005,171.267181 275.860535,170.930084 275.348511,169.466858 
	C273.500519,164.185394 271.725616,158.878326 269.866180,153.413589 
	C277.048157,150.724350 276.436920,156.734665 278.390930,159.866028 
	C280.757935,157.786667 278.975800,152.527344 283.780945,152.391235 
	C288.704315,152.251785 286.895355,157.508102 289.500946,159.818237 
	C290.991180,155.644882 292.024445,151.611038 297.984253,151.918823 
	C303.260254,152.191315 303.643921,156.113708 305.284882,159.525940 
	C307.562836,157.091782 306.190399,151.850601 311.165039,152.363495 
	C315.995789,152.861526 313.742615,157.870148 316.138702,160.461578 
	C318.248566,157.457092 317.486694,152.184464 323.619354,152.027466 
	C329.317841,151.881592 330.577881,155.273270 332.027008,159.960892 
	C334.421173,157.180115 333.147339,151.854202 338.368317,152.539124 
	C342.800751,153.120560 340.402618,157.749832 343.046204,159.773300 
	C345.630493,157.786743 344.005829,150.403244 351.605652,153.405716 
	C349.735352,158.884308 348.069031,164.531891 345.836212,169.945816 
	C344.882599,172.258087 341.088715,171.711334 339.804321,169.336258 
	C339.412415,168.611481 339.219482,167.781357 338.904510,167.012100 
	C338.595642,166.257675 338.247437,165.519302 337.892151,164.719086 
	C337.507660,164.974213 337.191467,165.073959 337.061554,165.287186 
	C335.717163,167.493469 336.430176,171.338104 332.252716,171.276276 
	C328.101288,171.214813 328.650909,167.546661 327.658325,165.151886 
	C326.477234,162.302307 325.560913,159.343002 324.149078,155.355820 
	C322.595032,160.083176 321.426544,163.668259 320.236450,167.246124 
	C319.547852,169.316376 318.995209,171.348984 316.041168,171.332275 
	C312.936584,171.314682 312.791168,169.054337 312.192596,167.020966 
	C311.867340,165.916092 311.566437,164.804062 310.961639,162.653854 
	C310.083923,165.293930 309.509735,167.066208 308.904572,168.827835 
	C308.365845,170.396210 307.369568,171.281693 305.586395,171.297806 
	C303.691284,171.314911 302.422119,170.686508 301.801605,168.785049 
	C300.569733,165.010239 299.244873,161.265778 297.836365,157.152191 
	C295.365021,159.102234 295.417969,161.772446 294.285156,164.256470 
z"/>
<path fill="#000000" opacity="1.000000" stroke="none" 
	d="
M211.503693,147.548798 
	C212.259277,147.161987 212.760559,146.716187 213.156525,146.795578 
	C215.170761,147.199432 218.599304,155.335724 217.352737,156.896545 
	C214.569458,160.381500 213.824417,163.521698 217.551575,167.037155 
	C219.124115,168.520386 219.062347,170.666183 216.233063,171.557663 
	C212.661438,172.683044 209.609695,170.835724 209.092575,166.882629 
	C208.791992,164.584869 208.929657,162.232239 208.809479,159.907425 
	C208.744614,158.652878 208.262863,157.620316 206.826447,157.445587 
	C205.560959,157.291641 204.380203,157.621552 203.964645,158.899017 
	C203.179382,161.313110 202.617767,163.980133 204.605286,165.943741 
	C205.899445,167.222351 207.951385,167.889572 206.879578,170.167801 
	C206.164612,171.687515 204.478378,171.867020 202.973358,171.840973 
	C200.609161,171.800095 198.746872,170.785751 198.048462,168.394211 
	C197.729065,167.300522 197.764587,166.097397 197.684326,164.940781 
	C197.482300,162.029633 197.855591,159.229431 196.045303,156.367004 
	C194.195648,153.442307 198.288605,148.093262 202.754944,146.807587 
	C203.541962,147.364304 203.552872,148.189255 203.528915,149.029449 
	C203.479385,150.767563 204.265701,151.902252 205.988647,152.265778 
	C207.888687,152.666702 208.582214,151.410782 209.285248,149.954651 
	C209.696030,149.103821 210.547577,148.465805 211.503693,147.548798 
z"/>
<path fill="#000000" opacity="1.000000" stroke="none" 
	d="
M220.293030,154.531204 
	C224.396057,151.503433 232.694550,151.150360 235.699692,153.496994 
	C238.978363,156.057190 240.087173,161.701630 238.297333,166.343735 
	C236.291321,171.546585 232.168930,172.360977 227.694519,171.559494 
	C226.467834,172.235596 226.402512,173.080551 226.360794,173.909286 
	C226.249939,176.111893 226.383759,178.489792 223.059021,178.204224 
	C219.864731,177.929825 220.240433,175.370193 220.129608,173.329117 
	C219.796463,167.193680 221.080307,161.057968 220.293030,154.531204 
M231.960968,165.162476 
	C232.968018,163.497803 232.968582,161.662155 232.502472,159.909637 
	C231.872711,157.541855 230.223923,156.551788 228.060440,158.024963 
	C225.791122,159.570190 225.895706,162.062592 226.798004,164.259720 
	C227.641159,166.312805 229.262619,167.381378 231.960968,165.162476 
z"/>
<path fill="#000000" opacity="1.000000" stroke="none" 
	d="
M182.318039,166.901428 
	C182.316986,169.539764 181.939590,171.367950 179.090240,171.248459 
	C176.315826,171.132111 176.600281,169.114059 176.561630,167.311737 
	C176.440720,161.675400 176.225723,156.036469 176.315155,150.402771 
	C176.346283,148.442337 176.069565,145.787643 179.409637,145.754562 
	C182.860260,145.720398 182.154114,148.307800 182.400665,150.331726 
	C182.458496,150.806412 182.658188,151.263840 182.764313,151.631256 
	C184.107361,152.819107 185.396255,151.749146 186.658585,151.790848 
	C190.626358,151.921906 193.513947,153.534622 193.890854,157.767563 
	C194.198685,161.224792 194.088409,164.726791 194.026077,168.206467 
	C193.991776,170.121857 192.985046,171.255188 190.889877,171.243988 
	C188.756271,171.232590 187.931046,170.032776 187.866348,168.118027 
	C187.782288,165.630234 187.801422,163.138824 187.708405,160.651505 
	C187.650681,159.107452 187.436203,157.451385 185.373047,157.532990 
	C183.650436,157.601120 182.680176,158.905029 182.498596,160.486771 
	C182.272522,162.456116 182.367508,164.462296 182.318039,166.901428 
z"/>
<path fill="#000000" opacity="1.000000" stroke="none" 
	d="
M256.031555,168.679825 
	C255.243057,170.986176 254.103073,172.478912 251.884323,171.577957 
	C249.605301,170.652496 250.858887,168.838516 251.242371,167.304001 
	C252.770065,161.190613 254.251343,155.065338 255.824524,148.963730 
	C256.316437,147.055786 256.818115,144.594986 259.526184,145.311737 
	C262.214539,146.023270 260.839142,148.249847 260.463287,149.898300 
	C259.062622,156.041550 257.595032,162.169571 256.031555,168.679825 
z"/>
<path fill="#000000" opacity="1.000000" stroke="none" 
	d="
M269.256714,154.049408 
	C267.917694,159.272125 266.605255,164.076981 265.410034,168.910828 
	C264.951294,170.766312 264.143524,172.170990 262.056183,171.595993 
	C260.013275,171.033234 260.580200,169.204437 260.902222,167.819504 
	C262.405579,161.354065 264.026825,154.916153 265.576447,148.461334 
	C266.028503,146.578400 266.610138,144.629044 269.023743,145.131577 
	C271.506561,145.648529 270.401062,147.762207 270.253143,149.261581 
	C270.107483,150.738068 269.650482,152.183868 269.256714,154.049408 
z"/>
<path fill="#000000" opacity="1.000000" stroke="none" 
	d="
M244.080521,171.006744 
	C242.465607,168.810165 241.724564,166.745468 244.828873,165.848816 
	C246.469437,165.374969 248.308456,165.558701 248.553467,167.881470 
	C248.877716,170.955551 247.032562,171.541901 244.080521,171.006744 
z"/>
<path fill="#000000" opacity="1.000000" stroke="none" 
	d="
M352.423645,166.393585 
	C354.735260,165.749863 356.919769,165.074158 357.194794,168.223145 
	C357.344849,169.941315 356.762756,171.222748 354.767395,171.209534 
	C351.425568,171.187408 351.586670,169.038635 352.423645,166.393585 
z"/>
<path fill="#000000" opacity="1.000000" stroke="none" 
	d="
M243.399246,157.578659 
	C242.584961,155.033554 242.210876,152.852188 245.537003,152.741455 
	C247.339630,152.681427 248.270020,153.627335 248.208206,155.437729 
	C248.095123,158.750031 245.966034,158.450211 243.399246,157.578659 
z"/>
</svg>